<?xml version="1.0" standalone="no"?>
<!DOCTYPE svg PUBLIC "-//W3C//DTD SVG 1.1//EN" "http://www.w3.org/Graphics/SVG/1.1/DTD/svg11.dtd" >
<svg xmlns="http://www.w3.org/2000/svg">
<metadata>
Created by FontForge 20120731 at Fri May 13 11:19:50 2016
 By admin
</metadata>
<defs>
<font id="roundiconfont" horiz-adv-x="1024" >
  <font-face 
    font-family="roundiconfont"
    font-weight="500"
    font-stretch="normal"
    units-per-em="1024"
    panose-1="2 0 6 3 0 0 0 0 0 0"
    ascent="896"
    descent="-128"
    x-height="792"
    bbox="0 -128 1024 896"
    underline-thickness="50"
    underline-position="-100"
    unicode-range="U+0078-E647"
  />
<missing-glyph horiz-adv-x="374" 
d="M34 0v682h272v-682h-272zM68 34h204v614h-204v-614z" />
    <glyph glyph-name=".notdef" horiz-adv-x="374" 
d="M34 0v682h272v-682h-272zM68 34h204v614h-204v-614z" />
    <glyph glyph-name=".null" horiz-adv-x="0" 
 />
    <glyph glyph-name="nonmarkingreturn" horiz-adv-x="341" 
 />
    <glyph glyph-name="x" unicode="x" horiz-adv-x="1001" 
d="M281 543q-27 -1 -53 -1h-83q-18 0 -36.5 -6t-32.5 -18.5t-23 -32t-9 -45.5v-76h912v41q0 16 -0.5 30t-0.5 18q0 13 -5 29t-17 29.5t-31.5 22.5t-49.5 9h-133v-97h-438v97zM955 310v-52q0 -23 0.5 -52t0.5 -58t-10.5 -47.5t-26 -30t-33 -16t-31.5 -4.5q-14 -1 -29.5 -0.5
t-29.5 0.5h-32l-45 128h-439l-44 -128h-29h-34q-20 0 -45 1q-25 0 -41 9.5t-25.5 23t-13.5 29.5t-4 30v167h911zM163 247q-12 0 -21 -8.5t-9 -21.5t9 -21.5t21 -8.5q13 0 22 8.5t9 21.5t-9 21.5t-22 8.5zM316 123q-8 -26 -14 -48q-5 -19 -10.5 -37t-7.5 -25t-3 -15t1 -14.5
t9.5 -10.5t21.5 -4h37h67h81h80h64h36q23 0 34 12t2 38q-5 13 -9.5 30.5t-9.5 34.5q-5 19 -11 39h-368zM336 498v228q0 11 2.5 23t10 21.5t20.5 15.5t34 6h188q31 0 51.5 -14.5t20.5 -52.5v-227h-327z" />
    <glyph glyph-name="uniE602" unicode="&#xe602;" 
d="M512 896q-139 0 -257 -68.5t-186.5 -186.5t-68.5 -257t68.5 -257t186.5 -186.5t257 -68.5t257 68.5t186.5 186.5t68.5 257t-68.5 257t-186.5 186.5t-257 68.5zM512 -96q-98 0 -186.5 38t-153 102.5t-102.5 153t-38 186.5t38 186.5t102.5 153t153 102.5t186.5 38
t186.5 -38t153 -102.5t102.5 -153t38 -186.5t-38 -186.5t-102.5 -153t-153 -102.5t-186.5 -38zM535 384l203 204q12 11 0.5 22.5t-22.5 -0.5l-204 -203l-204 203q-11 12 -22.5 0.5t0.5 -22.5l203 -204l-203 -204q-12 -11 -0.5 -22.5t22.5 0.5l204 203l204 -203
q11 -12 22.5 -0.5t-0.5 22.5z" />
    <glyph glyph-name="uniE604" unicode="&#xe604;" 
d="M512 896q-139 0 -257 -68.5t-186.5 -186.5t-68.5 -257t68.5 -257t186.5 -186.5t257 -68.5t257 68.5t186.5 186.5t68.5 257t-68.5 257t-186.5 186.5t-257 68.5zM512 -96q-98 0 -186.5 38t-153 102.5t-102.5 153t-38 186.5t38 186.5t102.5 153t153 102.5t186.5 38
t186.5 -38t153 -102.5t102.5 -153t38 -186.5t-38 -186.5t-102.5 -153t-153 -102.5t-186.5 -38zM817 588l-373 -374l-237 238q-12 11 -23 0t0 -23l249 -248v-1q4 -4 11 -4t11 4l1 1l384 384q11 11 0 22.5t-23 0.5z" />
    <glyph glyph-name="uniE605" unicode="&#xe605;" 
d="M512 896q-139 0 -257 -68.5t-186.5 -186.5t-68.5 -257t68.5 -257t186.5 -186.5t257 -68.5t257 68.5t186.5 186.5t68.5 257t-68.5 257t-186.5 186.5t-257 68.5zM512 -96q-98 0 -186.5 38t-153 102.5t-102.5 153t-38 186.5t38 186.5t102.5 153t153 102.5t186.5 38
t186.5 -38t153 -102.5t102.5 -153t38 -186.5t-38 -186.5t-102.5 -153t-153 -102.5t-186.5 -38zM848 400h-672q-7 0 -11.5 -4.5t-4.5 -11.5t4.5 -11.5t11.5 -4.5h672q7 0 11.5 4.5t4.5 11.5t-4.5 11.5t-11.5 4.5z" />
    <glyph glyph-name="uniE606" unicode="&#xe606;" 
d="M512 896q-139 0 -257 -68.5t-186.5 -186.5t-68.5 -257t68.5 -257t186.5 -186.5t257 -68.5t257 68.5t186.5 186.5t68.5 257t-68.5 257t-186.5 186.5t-257 68.5zM512 -96q-98 0 -186.5 38t-153 102.5t-102.5 153t-38 186.5t38 186.5t102.5 153t153 102.5t186.5 38
t186.5 -38t153 -102.5t102.5 -153t38 -186.5t-38 -186.5t-102.5 -153t-153 -102.5t-186.5 -38zM792 400h-560q-7 0 -11.5 -4.5t-4.5 -11.5t4.5 -11.5t11.5 -4.5h560q7 0 11.5 4.5t4.5 11.5t-4.5 11.5t-11.5 4.5zM528 104v560q0 7 -4.5 11.5t-11.5 4.5t-11.5 -4.5t-4.5 -11.5
v-560q0 -7 4.5 -11.5t11.5 -4.5t11.5 4.5t4.5 11.5z" />
    <glyph glyph-name="uniE607" unicode="&#xe607;" 
d="M512 896q-139 0 -257 -68.5t-186.5 -186.5t-68.5 -257t68.5 -257t186.5 -186.5t257 -68.5t257 68.5t186.5 186.5t68.5 257t-68.5 257t-186.5 186.5t-257 68.5zM512 -96q-98 0 -186.5 38t-153 102.5t-102.5 153t-38 186.5t38 186.5t102.5 153t153 102.5t186.5 38
t186.5 -38t153 -102.5t102.5 -153t38 -186.5t-38 -186.5t-102.5 -153t-153 -102.5t-186.5 -38zM648 622q-83 0 -136 -64q-53 64 -136 64q-73 0 -124.5 -51.5t-51.5 -124.5q0 -41 17.5 -77t48.5 -60l245 -195l247 195q31 24 48.5 60t17.5 77q0 73 -51.5 124.5t-124.5 51.5z
M733 330l-222 -176l-220 176q-59 43 -59 116q0 60 42 102t102 42q47 0 84 -27t52 -70q15 43 52 70t84 27q60 0 102 -42t42 -102q0 -35 -16 -65.5t-43 -50.5z" />
    <glyph glyph-name="uniE608" unicode="&#xe608;" 
d="M512 896q-139 0 -257 -68.5t-186.5 -186.5t-68.5 -257t68.5 -257t186.5 -186.5t257 -68.5t257 68.5t186.5 186.5t68.5 257t-68.5 257t-186.5 186.5t-257 68.5zM512 -96q-98 0 -186.5 38t-153 102.5t-102.5 153t-38 186.5t38 186.5t102.5 153t153 102.5t186.5 38
t186.5 -38t153 -102.5t102.5 -153t38 -186.5t-38 -186.5t-102.5 -153t-153 -102.5t-186.5 -38zM431 644q-11 12 -22.5 0.5t-0.5 -22.5l238 -238l-238 -238q-11 -11 0.5 -22.5t22.5 0.5l249 249q5 4 5 11t-5 11z" />
    <glyph glyph-name="uniE609" unicode="&#xe609;" 
d="M512 896q-139 0 -257 -68.5t-186.5 -186.5t-68.5 -257t68.5 -257t186.5 -186.5t257 -68.5t257 68.5t186.5 186.5t68.5 257t-68.5 257t-186.5 186.5t-257 68.5zM512 -96q-98 0 -186.5 38t-153 102.5t-102.5 153t-38 186.5t38 186.5t102.5 153t153 102.5t186.5 38
t186.5 -38t153 -102.5t102.5 -153t38 -186.5t-38 -186.5t-102.5 -153t-153 -102.5t-186.5 -38zM593 124q11 -12 22.5 -0.5t0.5 22.5l-238 238l238 238q11 11 -0.5 22.5t-22.5 -0.5l-249 -249q-5 -4 -5 -11t5 -11z" />
    <glyph glyph-name="uniE60B" unicode="&#xe60b;" 
d="M512 896q-139 0 -257 -68.5t-186.5 -186.5t-68.5 -257t68.5 -257t186.5 -186.5t257 -68.5t257 68.5t186.5 186.5t68.5 257t-68.5 257t-186.5 186.5t-257 68.5zM512 -96q-98 0 -186.5 38t-153 102.5t-102.5 153t-38 186.5t38 186.5t102.5 153t153 102.5t186.5 38
t186.5 -38t153 -102.5t102.5 -153t38 -186.5t-38 -186.5t-102.5 -153t-153 -102.5t-186.5 -38zM816 420l-294 247v1h-1q-1 1 -3 1q-1 1 -3 1h-1q0 1 -0.5 1t-1.5 -1v0q-1 1 -1.5 1t-0.5 -1h-1q-2 0 -3.5 -0.5t-2.5 -1.5h-1v-1l-294 -247q-6 -4 -6.5 -10.5t4 -11.5t11 -6
t11.5 4l22 18v-269q0 -10 10 -14q3 -2 6 -2h492q7 0 11.5 5t4.5 11v269l22 -18q5 -5 11.5 -4t11 6t4 11.5t-6.5 10.5zM426 317h172v-156h-172v156zM742 441v-280h-112v172q0 6 -4.5 11t-11.5 5h-204q-7 0 -11.5 -5t-4.5 -11v-172h-112v280l230 193z" />
    <glyph glyph-name="uniE60C" unicode="&#xe60c;" 
d="M512 896q-139 0 -257 -68.5t-186.5 -186.5t-68.5 -257t68.5 -257t186.5 -186.5t257 -68.5t257 68.5t186.5 186.5t68.5 257t-68.5 257t-186.5 186.5t-257 68.5zM512 -96q-98 0 -186.5 38t-153 102.5t-102.5 153t-38 186.5t38 186.5t102.5 153t153 102.5t186.5 38
t186.5 -38t153 -102.5t102.5 -153t38 -186.5t-38 -186.5t-102.5 -153t-153 -102.5t-186.5 -38zM624 376q64 53 64 136q0 73 -51.5 124.5t-124.5 51.5t-124.5 -51.5t-51.5 -124.5q0 -83 64 -136q-72 -33 -116 -99.5t-44 -148.5q0 -6 4.5 -11t11.5 -5t11.5 5t4.5 11
q0 78 45 140t116 87q37 -19 79 -19t79 19q71 -25 116 -87t45 -140q0 -6 4.5 -11t11.5 -5t11.5 5t4.5 11q0 82 -44 148.5t-116 99.5zM368 512q0 59 42 101.5t102 42.5t102 -42.5t42 -101.5q0 -58 -40 -99.5t-97 -44.5h-3h-4h-4h-3q-57 3 -97 44.5t-40 99.5z" />
    <glyph glyph-name="uniE60D" unicode="&#xe60d;" 
d="M512 896q-139 0 -257 -68.5t-186.5 -186.5t-68.5 -257t68.5 -257t186.5 -186.5t257 -68.5t257 68.5t186.5 186.5t68.5 257t-68.5 257t-186.5 186.5t-257 68.5zM512 -96q-98 0 -186.5 38t-153 102.5t-102.5 153t-38 186.5t38 186.5t102.5 153t153 102.5t186.5 38
t186.5 -38t153 -102.5t102.5 -153t38 -186.5t-38 -186.5t-102.5 -153t-153 -102.5t-186.5 -38zM791 328q-7 0 -12 -4.5t-5 -11.5q-24 -88 -96.5 -144t-165.5 -56q-84 0 -152.5 47t-99.5 123l53 -25q6 -3 12.5 -0.5t9 8.5t0.5 12t-8 9l-86 40q-3 2 -7 2v0h-1q-10 0 -14 -9
l-41 -87q-3 -6 -0.5 -12t8.5 -9t12 -0.5t9 8.5l24 51q34 -85 110.5 -137.5t170.5 -52.5q106 0 188.5 65.5t106.5 166.5q0 7 -4.5 11.5t-11.5 4.5zM838 557q-6 3 -12 0.5t-9 -8.5l-24 -50q-34 84 -110.5 136.5t-170.5 52.5q-106 0 -188 -65.5t-107 -166.5q0 -7 5 -11.5
t11.5 -4.5t11.5 4.5t5 11.5q24 88 96.5 144t165.5 56q85 0 153 -47t99 -123l-53 25q-6 3 -12.5 0.5t-9 -8.5t-0.5 -12t8 -9l87 -41q1 0 4 -1h1h2h1h1q2 0 4 1l3 1l2 2q3 3 4 6l40 86q3 6 0.5 12t-8.5 9z" />
    <glyph glyph-name="uniE60F" unicode="&#xe60f;" 
d="M512 896q-139 0 -257 -68.5t-186.5 -186.5t-68.5 -257t68.5 -257t186.5 -186.5t257 -68.5t257 68.5t186.5 186.5t68.5 257t-68.5 257t-186.5 186.5t-257 68.5zM512 -96q-98 0 -186.5 38t-153 102.5t-102.5 153t-38 186.5t38 186.5t102.5 153t153 102.5t186.5 38
t186.5 -38t153 -102.5t102.5 -153t38 -186.5t-38 -186.5t-102.5 -153t-153 -102.5t-186.5 -38zM666.5 480q46.5 0 79.5 33t33 79.5t-33 79t-79.5 32.5t-79 -32.5t-32.5 -79t32.5 -79.5t79 -33zM666.5 672q33.5 0 57 -23.5t23.5 -56.5t-23.5 -56.5t-57 -23.5t-56.5 23.5
t-23 56.5t23 56.5t56.5 23.5zM753 404q-37 0 -70.5 -32.5t-55.5 -76.5t-37 -95q-19 68 -52 129.5t-84 106t-106 44.5q-53 0 -102.5 -40.5t-82 -100.5t-52.5 -124.5t-20 -114.5q0 -6 5 -11t11.5 -5t11 5t4.5 11q0 67 30.5 147.5t84.5 140.5t110 60t110 -60t84.5 -140.5
t30.5 -147.5q0 -6 4.5 -11t11 -5t11.5 5t5 11q0 44 20.5 107t56 114t71 51t71.5 -51t56.5 -114t20.5 -107q0 -6 4.5 -11t11 -5t11.5 5t5 11q0 35 -13.5 85t-36 99.5t-57.5 84.5t-73 35z" />
    <glyph glyph-name="uniE610" unicode="&#xe610;" 
d="M512 896q-139 0 -257 -68.5t-186.5 -186.5t-68.5 -257t68.5 -257t186.5 -186.5t257 -68.5t257 68.5t186.5 186.5t68.5 257t-68.5 257t-186.5 186.5t-257 68.5zM512 -96q-98 0 -186.5 38t-153 102.5t-102.5 153t-38 186.5t38 186.5t102.5 153t153 102.5t186.5 38
t186.5 -38t153 -102.5t102.5 -153t38 -186.5t-38 -186.5t-102.5 -153t-153 -102.5t-186.5 -38zM512 288q60 0 102 41.5t42 99.5v135q0 58 -42 99t-102 41t-102 -41t-42 -99v-135q0 -58 42 -99.5t102 -41.5zM400 564q0 45 33 76.5t79 31.5t79 -31.5t33 -76.5v-135
q0 -45 -33 -77t-79 -32t-79 32t-33 77v135zM752 413q0 6 -4.5 11t-11.5 5t-11.5 -5t-4.5 -11q0 -77 -61 -131t-147 -54t-147 54t-61 131q0 6 -4.5 11t-11.5 5t-11.5 -5t-4.5 -11q0 -86 65 -148t159 -68v-112h-110q-7 0 -11.5 -4.5t-4.5 -11t4.5 -11.5t11.5 -5h252
q7 0 11.5 5t4.5 11.5t-4.5 11t-11.5 4.5h-110v112q94 6 159 68t65 148z" />
    <glyph glyph-name="uniE611" unicode="&#xe611;" 
d="M512 896q-139 0 -257 -68.5t-186.5 -186.5t-68.5 -257t68.5 -257t186.5 -186.5t257 -68.5t257 68.5t186.5 186.5t68.5 257t-68.5 257t-186.5 186.5t-257 68.5zM512 -96q-98 0 -186.5 38t-153 102.5t-102.5 153t-38 186.5t38 186.5t102.5 153t153 102.5t186.5 38
t186.5 -38t153 -102.5t102.5 -153t38 -186.5t-38 -186.5t-102.5 -153t-153 -102.5t-186.5 -38zM821 378q1 2 1 3v3v3q0 1 -1 3v2h-1v1l-2 3q-2 1 -3 1v1l-458 264v0q-1 1 -3.5 1.5t-3.5 0.5v0h-2h-1q-2 -1 -3 -1t-2.5 -1t-2.5 -2l-2 -2q0 -1 -1 -2h-1v-1q0 -1 -0.5 -3
t-0.5 -3v-1h-1v-528h1v-1q0 -1 0.5 -3t0.5 -3v-1h1q1 -1 1 -2l2 -2q1 -1 2.5 -2t2.5 -1t3 -1h1h1h1q1 0 3.5 0.5t2.5 1.5h1l458 264v1q1 0 3 1l2 3v1q1 0 1 1v1zM365 620l410 -236l-410 -236v472z" />
    <glyph glyph-name="uniE612" unicode="&#xe612;" 
d="M512 896q-139 0 -257 -68.5t-186.5 -186.5t-68.5 -257t68.5 -257t186.5 -186.5t257 -68.5t257 68.5t186.5 186.5t68.5 257t-68.5 257t-186.5 186.5t-257 68.5zM512 -96q-98 0 -186.5 38t-153 102.5t-102.5 153t-38 186.5t38 186.5t102.5 153t153 102.5t186.5 38
t186.5 -38t153 -102.5t102.5 -153t38 -186.5t-38 -186.5t-102.5 -153t-153 -102.5t-186.5 -38zM371 576q-7 0 -11.5 -4.5t-4.5 -11.5v-352q0 -7 4.5 -11.5t11.5 -4.5t11.5 4.5t4.5 11.5v352q0 7 -4.5 11.5t-11.5 4.5zM653 576q-7 0 -11.5 -4.5t-4.5 -11.5v-352
q0 -7 4.5 -11.5t11.5 -4.5t11.5 4.5t4.5 11.5v352q0 7 -4.5 11.5t-11.5 4.5z" />
    <glyph glyph-name="uniE613" unicode="&#xe613;" 
d="M512 896q-139 0 -257 -68.5t-186.5 -186.5t-68.5 -257t68.5 -257t186.5 -186.5t257 -68.5t257 68.5t186.5 186.5t68.5 257t-68.5 257t-186.5 186.5t-257 68.5zM512 -96q-98 0 -186.5 38t-153 102.5t-102.5 153t-38 186.5t38 186.5t102.5 153t153 102.5t186.5 38
t186.5 -38t153 -102.5t102.5 -153t38 -186.5t-38 -186.5t-102.5 -153t-153 -102.5t-186.5 -38zM800 135l-132 132q64 73 64 169q0 106 -75 181t-181 75t-181 -75t-75 -181t75 -181t181 -75q96 0 169 64l132 -132q11 -11 22.5 0.5t0.5 22.5zM476 212q-93 0 -158.5 65.5
t-65.5 158.5t65.5 158.5t158.5 65.5t158.5 -65.5t65.5 -158.5t-65.5 -158.5t-158.5 -65.5z" />
    <glyph glyph-name="uniE614" unicode="&#xe614;" 
d="M512 896q-139 0 -257 -68.5t-186.5 -186.5t-68.5 -257t68.5 -257t186.5 -186.5t257 -68.5t257 68.5t186.5 186.5t68.5 257t-68.5 257t-186.5 186.5t-257 68.5zM512 -96q-98 0 -186.5 38t-153 102.5t-102.5 153t-38 186.5t38 186.5t102.5 153t153 102.5t186.5 38
t186.5 -38t153 -102.5t102.5 -153t38 -186.5t-38 -186.5t-102.5 -153t-153 -102.5t-186.5 -38zM432 614h160q7 0 11.5 4.5t4.5 11t-4.5 11.5t-11.5 5h-160q-7 0 -11.5 -5t-4.5 -11.5t4.5 -11t11.5 -4.5zM742 570h-460q-7 0 -11.5 -5t-4.5 -11.5t4.5 -11t11.5 -4.5h460
q7 0 11.5 4.5t4.5 11t-4.5 11.5t-11.5 5zM448 205v256q0 7 -4.5 11.5t-11.5 4.5t-11.5 -4.5t-4.5 -11.5v-256q0 -7 4.5 -11.5t11.5 -4.5t11.5 4.5t4.5 11.5zM608 205v256q0 7 -4.5 11.5t-11.5 4.5t-11.5 -4.5t-4.5 -11.5v-256q0 -7 4.5 -11.5t11.5 -4.5t11.5 4.5t4.5 11.5z
M704 504q-7 0 -11.5 -5t-4.5 -11v-334h-352v334q0 6 -4.5 11t-11.5 5t-11.5 -5t-4.5 -11v-350q0 -6 4.5 -11t11.5 -5h384q7 0 11.5 5t4.5 11v350q0 6 -4.5 11t-11.5 5z" />
    <glyph glyph-name="uniE616" unicode="&#xe616;" 
d="M512 896q-139 0 -257 -68.5t-186.5 -186.5t-68.5 -257t68.5 -257t186.5 -186.5t257 -68.5t257 68.5t186.5 186.5t68.5 257t-68.5 257t-186.5 186.5t-257 68.5zM512 -96q-98 0 -186.5 38t-153 102.5t-102.5 153t-38 186.5t38 186.5t102.5 153t153 102.5t186.5 38
t186.5 -38t153 -102.5t102.5 -153t38 -186.5t-38 -186.5t-102.5 -153t-153 -102.5t-186.5 -38zM512 480q-40 0 -68 -28t-28 -68t28 -68t68 -28t68 28t28 68t-28 68t-68 28zM512 320q-27 0 -45.5 18.5t-18.5 45.5t18.5 45.5t45.5 18.5t45.5 -18.5t18.5 -45.5t-18.5 -45.5
t-45.5 -18.5zM810 491q3 12 -3 23l-35 60q-7 11 -18.5 15t-22.5 -1l-42 -19q-45 43 -106 61l-4 45q-1 13 -11 21q-9 8 -21 8h-70q-12 0 -21.5 -8.5t-10.5 -20.5l-4 -45q-61 -18 -106 -61l-42 19q-11 5 -22.5 1t-18.5 -15l-35 -60q-6 -11 -3.5 -23t12.5 -19l37 -27
q-7 -30 -7 -61t7 -61l-37 -27q-10 -7 -12.5 -19t3.5 -23l35 -60q7 -11 18.5 -15t22.5 1l42 19q45 -43 106 -61l4 -45q1 -12 10.5 -20.5t21.5 -8.5h70q12 0 21 8q10 8 11 21l4 45q61 18 106 61l42 -19q11 -5 22.5 -1t18.5 15l35 60q6 11 3 23q-2 12 -12 19l-37 27q7 30 7 61
t-7 61l37 27q10 7 12 19zM772 501q-1 -6 -6 -9l-17 -12l-26 -20q6 -17 9 -35q4 -21 4 -41t-4 -41q-3 -18 -9 -35l26 -20l17 -12q5 -3 6 -9t-2 -12l-17 -30q-4 -6 -9.5 -7.5t-11.5 0.5l-18 8l-31 14q0 -1 -1 -1v-1h-1v-1q-5 -6 -10 -11q-7 -7 -12 -11q-1 -1 -2 -1
q-31 -27 -70 -41q-18 -6 -36 -9l-3 -33l-2 -21q-1 -6 -6 -10q-4 -4 -10 -4h-36q-6 0 -10 4q-5 4 -6 10l-2 21l-4 33q-18 3 -35 9q-39 14 -70 41q-1 0 -2 1q-5 4 -12 11l-12 14l-31 -14l-18 -8q-6 -3 -12 -1t-8 8l-18 30q-3 5 -2 11.5t6 9.5l17 12l26 20q-6 17 -9 35
q-4 21 -4 41t4 41q3 18 9 35l-26 20l-17 12q-5 3 -6 9.5t2 11.5l18 30q2 6 8 8t12 -1l18 -8l31 -13h1v1q1 0 1 0.5t1 1.5q3 3 9 10q7 7 12 11q1 1 2 1q31 27 70 41q17 6 35 10l4 32l2 21q1 6 6 10q4 4 10 4h36q6 0 10 -4q5 -4 6 -10l2 -21l4 -32q17 -4 35 -10q39 -14 70 -41
q1 0 2 -1q2 -2 6 -5l6 -6q6 -6 9 -10v-1q2 -1 3 -2l31 13l18 8q6 3 11.5 1t9.5 -8l17 -30q3 -6 2 -12z" />
    <glyph glyph-name="uniE617" unicode="&#xe617;" 
d="M512 896q-139 0 -257 -68.5t-186.5 -186.5t-68.5 -257t68.5 -257t186.5 -186.5t257 -68.5t257 68.5t186.5 186.5t68.5 257t-68.5 257t-186.5 186.5t-257 68.5zM512 -96q-98 0 -186.5 38t-153 102.5t-102.5 153t-38 186.5t38 186.5t102.5 153t153 102.5t186.5 38
t186.5 -38t153 -102.5t102.5 -153t38 -186.5t-38 -186.5t-102.5 -153t-153 -102.5t-186.5 -38zM822.5 541.5q-9.5 9.5 -22.5 9.5h-105l-18 89q-2 11 -11 18t-20 7h-268q-11 0 -20 -7t-11 -18l-18 -89h-105q-13 0 -22.5 -9.5t-9.5 -22.5v-352q0 -13 9.5 -22.5t22.5 -9.5h576
q13 0 22.5 9.5t9.5 22.5v352q0 13 -9.5 22.5zM800 183q0 -7 -5 -12q-5 -4 -11 -4h-544q-6 0 -11 4q-5 5 -5 12v320q0 6 5 11t11 5h103q5 0 9.5 3t5.5 9l5 20l18 70q1 5 6 9q4 3 9 3h232q5 0 9 -3q5 -4 6 -9l18 -70l5 -20q1 -6 5 -9q5 -3 10 -3h103q6 0 11 -5t5 -11v-320z
M512 519q-66 0 -113 -47t-47 -113.5t47 -113t113 -46.5t113 46.5t47 113t-47 113.5t-113 47zM512 231q-53 0 -90.5 37.5t-37.5 90.5t37.5 90.5t90.5 37.5t90.5 -37.5t37.5 -90.5t-37.5 -90.5t-90.5 -37.5zM480 561h64q7 0 11.5 5t4.5 11.5t-4.5 11t-11.5 4.5h-64
q-7 0 -11.5 -4.5t-4.5 -11t4.5 -11.5t11.5 -5zM758 477zM742 477.5q0 6.5 5 11t11.5 4.5t11 -4.5t4.5 -11t-4.5 -11.5t-11 -5t-11.5 5t-5 11.5z" />
    <glyph glyph-name="uniE619" unicode="&#xe619;" 
d="M512 896q-139 0 -257 -68.5t-186.5 -186.5t-68.5 -257t68.5 -257t186.5 -186.5t257 -68.5t257 68.5t186.5 186.5t68.5 257t-68.5 257t-186.5 186.5t-257 68.5zM512 -96q-98 0 -186.5 38t-153 102.5t-102.5 153t-38 186.5t38 186.5t102.5 153t153 102.5t186.5 38
t186.5 -38t153 -102.5t102.5 -153t38 -186.5t-38 -186.5t-102.5 -153t-153 -102.5t-186.5 -38zM711 615l-1 1v0v2v1l-2 3q0 1 -1 2.5t-2 2.5t-3 1l-2 2h-4q-1 1 -1.5 1t-0.5 -1h-1h-1l-360 -64h-2q-2 -1 -3 -1q-1 -1 -3 -2q-1 -1 -1 -2q-1 -1 -2 -2.5t-1 -2.5q-1 -2 -1 -4
v-1v-311q-19 9 -40 9q-30 0 -51 -16t-21 -39.5t21 -40t50.5 -16.5t51 16.5t21.5 39.5l-1 1h1v242l328 58v-190q-18 9 -40 9q-30 0 -51 -16t-21 -39.5t21 -40t50.5 -16.5t51 16.5t21.5 39.5v1v357zM278.5 169q-16.5 0 -28 7.5t-11.5 17t11.5 16.5t28 7t28.5 -7t12 -16.5
t-12 -17t-28.5 -7.5zM638.5 233q-16.5 0 -28 7t-11.5 17t11.5 17t28 7t28.5 -7t12 -17t-12 -17t-28.5 -7zM351 468v69l328 58v-69z" />
    <glyph glyph-name="uniE61A" unicode="&#xe61a;" 
d="M512 896q-139 0 -257 -68.5t-186.5 -186.5t-68.5 -257t68.5 -257t186.5 -186.5t257 -68.5t257 68.5t186.5 186.5t68.5 257t-68.5 257t-186.5 186.5t-257 68.5zM512 -96q-98 0 -186.5 38t-153 102.5t-102.5 153t-38 186.5t38 186.5t102.5 153t153 102.5t186.5 38
t186.5 -38t153 -102.5t102.5 -153t38 -186.5t-38 -186.5t-102.5 -153t-153 -102.5t-186.5 -38zM512 688q-126 0 -215 -89t-89 -215t89 -215t215 -89t215 89t89 215t-89 215t-215 89zM512 112q-113 0 -192.5 79.5t-79.5 192.5t79.5 192.5t192.5 79.5t192.5 -79.5t79.5 -192.5
t-79.5 -192.5t-192.5 -79.5zM640 379h-112v113q0 7 -4.5 11.5t-11.5 4.5t-11.5 -4.5t-4.5 -11.5v-128v-1v0q0 -7 4.5 -11.5t11.5 -4.5h128q7 0 11.5 4.5t4.5 11t-4.5 11.5t-11.5 5zM512 624zM496 624q0 7 4.5 11.5t11.5 4.5t11.5 -4.5t4.5 -11.5t-4.5 -11.5t-11.5 -4.5
t-11.5 4.5t-4.5 11.5zM752 363zM736 363.5q0 6.5 4.5 11t11.5 4.5t11.5 -4.5t4.5 -11t-4.5 -11.5t-11.5 -5t-11.5 5t-4.5 11.5zM512 144zM496 144q0 7 4.5 11.5t11.5 4.5t11.5 -4.5t4.5 -11.5t-4.5 -11.5t-11.5 -4.5t-11.5 4.5t-4.5 11.5zM272 363zM256 363.5q0 6.5 4.5 11
t11.5 4.5t11.5 -4.5t4.5 -11t-4.5 -11.5t-11.5 -5t-11.5 5t-4.5 11.5z" />
    <glyph glyph-name="uniE61B" unicode="&#xe61b;" 
d="M512 896q-139 0 -257 -68.5t-186.5 -186.5t-68.5 -257t68.5 -257t186.5 -186.5t257 -68.5t257 68.5t186.5 186.5t68.5 257t-68.5 257t-186.5 186.5t-257 68.5zM512 -96q-98 0 -186.5 38t-153 102.5t-102.5 153t-38 186.5t38 186.5t102.5 153t153 102.5t186.5 38
t186.5 -38t153 -102.5t102.5 -153t38 -186.5t-38 -186.5t-102.5 -153t-153 -102.5t-186.5 -38zM806.5 582.5q-9.5 9.5 -22.5 9.5h-544q-13 0 -22.5 -9.5t-9.5 -22.5v-352q0 -13 9.5 -22.5t22.5 -9.5h544q13 0 22.5 9.5t9.5 22.5v352q0 13 -9.5 22.5zM784 224
q0 -7 -4.5 -11.5t-11.5 -4.5h-512q-7 0 -11.5 4.5t-4.5 11.5v320q0 7 4.5 11.5t11.5 4.5h512q7 0 11.5 -4.5t4.5 -11.5v-320zM611 403l134 96q13 9 4 22t-22 4l-206 -147q-4 -3 -9 -3t-9 3l-206 147q-13 9 -22 -4t4 -22l134 -96l-136 -139q-12 -12 -0.5 -23t22.5 0l140 143
l54 -38q9 -6 19 -6t19 6l54 38l140 -143q11 -11 22.5 0t-0.5 23z" />
    <glyph glyph-name="uniE61D" unicode="&#xe61d;" 
d="M512 896q-139 0 -257 -68.5t-186.5 -186.5t-68.5 -257t68.5 -257t186.5 -186.5t257 -68.5t257 68.5t186.5 186.5t68.5 257t-68.5 257t-186.5 186.5t-257 68.5zM512 -96q-98 0 -186.5 38t-153 102.5t-102.5 153t-38 186.5t38 186.5t102.5 153t153 102.5t186.5 38
t186.5 -38t153 -102.5t102.5 -153t38 -186.5t-38 -186.5t-102.5 -153t-153 -102.5t-186.5 -38zM632 119q-59 0 -124 34t-129 98q-99 98 -124 195q-30 110 44 183l6 6q16 16 38.5 14t35.5 -21l59 -87q10 -14 8.5 -31.5t-13.5 -29.5l-31 -30q3 -12 22 -39t53 -60.5t61 -53
t38 -21.5l30 30q13 12 30 13.5t31 -7.5l89 -61q19 -13 21 -35.5t-14 -38.5l-6 -6q-52 -52 -125 -52zM340 617q-8 0 -12 -4l-7 -7q-60 -60 -36 -152q24 -89 116 -181q59 -58 119.5 -90t111.5 -32q59 0 102 42l7 7q5 5 4.5 12.5t-7.5 11.5l-89 61q-4 3 -9 3h-1q-6 -1 -10 -5
l-33 -33q-7 -7 -18 -7q-20 0 -55 25.5t-69 59.5q-42 42 -65 78q-30 46 -12 63l33 33q4 5 4.5 10.5t-2.5 10.5l-60 87q-4 7 -11 7h-1z" />
    <glyph glyph-name="uniE61E" unicode="&#xe61e;" 
d="M512 896q-139 0 -257 -68.5t-186.5 -186.5t-68.5 -257t68.5 -257t186.5 -186.5t257 -68.5t257 68.5t186.5 186.5t68.5 257t-68.5 257t-186.5 186.5t-257 68.5zM512 -96q-98 0 -186.5 38t-153 102.5t-102.5 153t-38 186.5t38 186.5t102.5 153t153 102.5t186.5 38
t186.5 -38t153 -102.5t102.5 -153t38 -186.5t-38 -186.5t-102.5 -153t-153 -102.5t-186.5 -38zM781.5 573.5q-9.5 9.5 -22.5 9.5h-117q-7 0 -11.5 -4.5t-4.5 -11.5t4.5 -11.5t11.5 -4.5h101q7 0 11.5 -4.5t4.5 -11.5v-314q0 -7 -4.5 -11.5t-11.5 -4.5h-462q-7 0 -11.5 4.5
t-4.5 11.5v314q0 7 4.5 11.5t11.5 4.5h101q7 0 11.5 4.5t4.5 11.5t-4.5 11.5t-11.5 4.5h-117q-13 0 -22.5 -9.5t-9.5 -22.5v-346q0 -13 9.5 -22.5t22.5 -9.5h494q13 0 22.5 9.5t9.5 22.5v346q0 13 -9.5 22.5zM388 401l113 -113v-1q3 -2 5 -3q3 -1 6 -1t6 1.5t5 3.5l113 113
q12 11 0.5 22.5t-22.5 -0.5l-86 -85v305q0 7 -4.5 11.5t-11.5 4.5t-11.5 -4.5t-4.5 -11.5v-305l-86 85q-11 12 -22.5 0.5t0.5 -22.5z" />
    <glyph glyph-name="uniE61F" unicode="&#xe61f;" 
d="M512 896q-139 0 -257 -68.5t-186.5 -186.5t-68.5 -257t68.5 -257t186.5 -186.5t257 -68.5t257 68.5t186.5 186.5t68.5 257t-68.5 257t-186.5 186.5t-257 68.5zM512 -96q-98 0 -186.5 38t-153 102.5t-102.5 153t-38 186.5t38 186.5t102.5 153t153 102.5t186.5 38
t186.5 -38t153 -102.5t102.5 -153t38 -186.5t-38 -186.5t-102.5 -153t-153 -102.5t-186.5 -38zM224 400q0 -119 84.5 -203.5t203.5 -84.5q76 0 142 38l81 -14q16 -2 28 9q9 10 9 23v5l-13 79q41 68 41 148q0 119 -84.5 203.5t-203.5 84.5t-203.5 -84.5t-84.5 -203.5z
M768 400q0 -77 -43 -141v0l15 -91l-91 16q-63 -40 -137 -40q-106 0 -181 75t-75 181t75 181t181 75t181 -75t75 -181zM360 400q0 -13 9.5 -22.5t22.5 -9.5t22.5 9.5t9.5 22.5t-9.5 22.5t-22.5 9.5t-22.5 -9.5t-9.5 -22.5zM480 400q0 -13 9.5 -22.5t22.5 -9.5t22.5 9.5
t9.5 22.5t-9.5 22.5t-22.5 9.5t-22.5 -9.5t-9.5 -22.5zM600 400q0 -13 9.5 -22.5t22.5 -9.5t22.5 9.5t9.5 22.5t-9.5 22.5t-22.5 9.5t-22.5 -9.5t-9.5 -22.5z" />
    <glyph glyph-name="uniE620" unicode="&#xe620;" 
d="M512 896q-139 0 -257 -68.5t-186.5 -186.5t-68.5 -257t68.5 -257t186.5 -186.5t257 -68.5t257 68.5t186.5 186.5t68.5 257t-68.5 257t-186.5 186.5t-257 68.5zM512 -96q-98 0 -186.5 38t-153 102.5t-102.5 153t-38 186.5t38 186.5t102.5 153t153 102.5t186.5 38
t186.5 -38t153 -102.5t102.5 -153t38 -186.5t-38 -186.5t-102.5 -153t-153 -102.5t-186.5 -38zM790.5 630.5q-9.5 9.5 -22.5 9.5h-512q-13 0 -22.5 -9.5t-9.5 -22.5v-448q0 -13 9.5 -22.5t22.5 -9.5h512q13 0 22.5 9.5t9.5 22.5v448q0 13 -9.5 22.5zM763.5 603.5
q4.5 -4.5 4.5 -11.5v-42h-64v58h48q7 0 11.5 -4.5zM672 518v-68v-32v-68v-32v-68v-32v-58h-320v448h320v-58v-32zM320 418v-68h-64v68h64zM256 450v68h64v-68h-64zM320 318v-68h-64v68h64zM704 318h64v-68h-64v68zM704 350v68h64v-68h-64zM704 450v68h64v-68h-64z
M260.5 603.5q4.5 4.5 11.5 4.5h48v-58h-64v42q0 7 4.5 11.5zM260.5 164.5q-4.5 4.5 -4.5 11.5v42h64v-58h-48q-7 0 -11.5 4.5zM763.5 164.5q-4.5 -4.5 -11.5 -4.5h-48v58h64v-42q0 -7 -4.5 -11.5z" />
    <glyph glyph-name="uniE621" unicode="&#xe621;" 
d="M512 896q-139 0 -257 -68.5t-186.5 -186.5t-68.5 -257t68.5 -257t186.5 -186.5t257 -68.5t257 68.5t186.5 186.5t68.5 257t-68.5 257t-186.5 186.5t-257 68.5zM512 -96q-98 0 -186.5 38t-153 102.5t-102.5 153t-38 186.5t38 186.5t102.5 153t153 102.5t186.5 38
t186.5 -38t153 -102.5t102.5 -153t38 -186.5t-38 -186.5t-102.5 -153t-153 -102.5t-186.5 -38zM512 688q-126 0 -215 -89t-89 -215t89 -215t215 -89t215 89t89 215t-89 215t-215 89zM783 400h-57q-4 80 -46 146t-110 104q88 -20 148 -89t65 -161zM496 368v-233
q-70 30 -114 92.5t-49 140.5h163zM333 400q5 78 49 140.5t114 92.5v-233h-163zM528 368h166q-4 -79 -49.5 -142t-116.5 -93v235zM528 400v235q71 -30 116.5 -93t49.5 -142h-166zM459 651q-68 -38 -111 -104.5t-47 -146.5h-60q5 93 66.5 163t151.5 88zM241 368h60
q4 -80 47 -146.5t111 -104.5q-90 18 -151.5 88t-66.5 163zM570 118q68 38 110 104t46 146h57q-5 -92 -65 -161t-148 -89zM752 570q-10 13 -21 24q-34 -25 -91 -40t-128 -15t-128 15t-91 40q-11 -11 -21 -24q39 -29 102 -46t138 -17t138 17t102 46zM265 208q9 -13 19 -25
q32 28 92 45t136 17t136 -17t92 -45q11 12 19 25q-38 32 -103 50.5t-144 18.5t-144 -18.5t-103 -50.5z" />
    <glyph glyph-name="uniE622" unicode="&#xe622;" 
d="M512 896q-139 0 -257 -68.5t-186.5 -186.5t-68.5 -257t68.5 -257t186.5 -186.5t257 -68.5t257 68.5t186.5 186.5t68.5 257t-68.5 257t-186.5 186.5t-257 68.5zM512 -96q-98 0 -186.5 38t-153 102.5t-102.5 153t-38 186.5t38 186.5t102.5 153t153 102.5t186.5 38
t186.5 -38t153 -102.5t102.5 -153t38 -186.5t-38 -186.5t-102.5 -153t-153 -102.5t-186.5 -38zM626 449l118 169q9 13 -4 22.5t-22 -3.5l-118 -169q-9 -14 4 -23t22 4zM736 493q-7 0 -11.5 -5t-4.5 -11v-272q0 -7 -4.5 -11.5t-11.5 -4.5h-384q-7 0 -11.5 4.5t-4.5 11.5v352
q0 6 4.5 11t11.5 5h256q7 0 11.5 4.5t4.5 11t-4.5 11.5t-11.5 5h-272q-13 0 -22.5 -9.5t-9.5 -22.5v-384q0 -14 9.5 -23t22.5 -9h416q13 0 22.5 9t9.5 23v288q0 6 -4.5 11t-11.5 5zM352 422h176q7 0 11.5 4.5t4.5 11t-4.5 11.5t-11.5 5h-176q-7 0 -11.5 -5t-4.5 -11.5
t4.5 -11t11.5 -4.5zM352 308h304q7 0 11.5 4.5t4.5 11t-4.5 11.5t-11.5 5h-304q-7 0 -11.5 -5t-4.5 -11.5t4.5 -11t11.5 -4.5z" />
    <glyph glyph-name="uniE623" unicode="&#xe623;" 
d="M512 896q-139 0 -257 -68.5t-186.5 -186.5t-68.5 -257t68.5 -257t186.5 -186.5t257 -68.5t257 68.5t186.5 186.5t68.5 257t-68.5 257t-186.5 186.5t-257 68.5zM512 -96q-98 0 -186.5 38t-153 102.5t-102.5 153t-38 186.5t38 186.5t102.5 153t153 102.5t186.5 38
t186.5 -38t153 -102.5t102.5 -153t38 -186.5t-38 -186.5t-102.5 -153t-153 -102.5t-186.5 -38zM703 144q4 -20 -12.5 -31.5t-33.5 -2.5l-138 72q-3 2 -7 2t-7 -2l-138 -72q-17 -9 -33.5 2.5t-12.5 31.5l26 153q1 4 -0.5 7.5t-4.5 6.5l-111 108q-14 14 -8 33t26 22l154 22
q4 1 7 3t5 6l68 139q9 18 29 18t29 -18l68 -139q2 -4 5.5 -6t6.5 -3l154 -22q20 -3 26 -22t-8 -33l-111 -108q-3 -3 -4.5 -6.5t-0.5 -7.5zM505 218q3 2 7 2t7 -2l124 -65q9 -4 17 1.5t6 15.5l-23 138q-1 4 0 7.5t4 6.5l100 97q7 7 4 16.5t-13 11.5l-138 20q-4 0 -7 2.5
t-5 6.5l-62 125q-4 9 -14 9t-14 -9l-62 -125q-2 -4 -5 -6.5t-7 -2.5l-138 -20q-10 -2 -13 -11.5t4 -16.5l100 -97q3 -3 4 -6.5t0 -7.5l-23 -138q-2 -10 6 -15.5t17 -1.5z" />
    <glyph glyph-name="uniE624" unicode="&#xe624;" 
d="M512 896q-139 0 -257 -68.5t-186.5 -186.5t-68.5 -257t68.5 -257t186.5 -186.5t257 -68.5t257 68.5t186.5 186.5t68.5 257t-68.5 257t-186.5 186.5t-257 68.5zM512 -96q-98 0 -186.5 38t-153 102.5t-102.5 153t-38 186.5t38 186.5t102.5 153t153 102.5t186.5 38
t186.5 -38t153 -102.5t102.5 -153t38 -186.5t-38 -186.5t-102.5 -153t-153 -102.5t-186.5 -38zM516 95q-61 0 -145 71q-55 48 -85.5 113.5t-30.5 136.5q0 107 75.5 182t181.5 75t181.5 -75t75.5 -182q0 -71 -30.5 -136.5t-85.5 -113.5q-84 -71 -137 -71zM512 641
q-93 0 -159 -66t-66 -159q0 -64 27.5 -123t77.5 -102q30 -26 64.5 -45t59.5 -19q41 0 116 64q50 43 77.5 102t27.5 123q0 93 -66 159t-159 66zM256 441zM512 382q-38 0 -64.5 27t-26.5 65t26.5 64.5t64.5 26.5t64.5 -26.5t26.5 -64.5t-26.5 -65t-64.5 -27zM512 533
q-25 0 -42 -17.5t-17 -42t17 -42t42 -17.5t42 17.5t17 42t-17 42t-42 17.5z" />
    <glyph glyph-name="uniE626" unicode="&#xe626;" 
d="M512 896q-139 0 -257 -68.5t-186.5 -186.5t-68.5 -257t68.5 -257t186.5 -186.5t257 -68.5t257 68.5t186.5 186.5t68.5 257t-68.5 257t-186.5 186.5t-257 68.5zM512 -96q-98 0 -186.5 38t-153 102.5t-102.5 153t-38 186.5t38 186.5t102.5 153t153 102.5t186.5 38
t186.5 -38t153 -102.5t102.5 -153t38 -186.5t-38 -186.5t-102.5 -153t-153 -102.5t-186.5 -38zM601 576h87q7 0 11.5 -4.5t4.5 -11.5v-104q0 -7 4.5 -11.5t11.5 -4.5t11.5 4.5t4.5 11.5v120q0 13 -9.5 22.5t-22.5 9.5h-103q-7 0 -11.5 -4.5t-4.5 -11.5t4.5 -11.5t11.5 -4.5z
M720 328q-7 0 -11.5 -4.5t-4.5 -11.5v-104q0 -7 -4.5 -11.5t-11.5 -4.5h-87q-7 0 -11.5 -4.5t-4.5 -11.5t4.5 -11.5t11.5 -4.5h103q13 0 22.5 9.5t9.5 22.5v120q0 7 -4.5 11.5t-11.5 4.5zM304 440q7 0 11.5 4.5t4.5 11.5v104q0 7 4.5 11.5t11.5 4.5h88q7 0 11.5 4.5
t4.5 11.5t-4.5 11.5t-11.5 4.5h-104q-13 0 -22.5 -9.5t-9.5 -22.5v-120q0 -7 4.5 -11.5t11.5 -4.5zM424 192h-88q-7 0 -11.5 4.5t-4.5 11.5v104q0 7 -4.5 11.5t-11.5 4.5t-11.5 -4.5t-4.5 -11.5v-120q0 -13 9.5 -22.5t22.5 -9.5h104q7 0 11.5 4.5t4.5 11.5t-4.5 11.5
t-11.5 4.5zM736 400h-448q-7 0 -11.5 -4.5t-4.5 -11.5t4.5 -11.5t11.5 -4.5h448q7 0 11.5 4.5t4.5 11.5t-4.5 11.5t-11.5 4.5z" />
    <glyph glyph-name="uniE627" unicode="&#xe627;" 
d="M512 896q-139 0 -257 -68.5t-186.5 -186.5t-68.5 -257t68.5 -257t186.5 -186.5t257 -68.5t257 68.5t186.5 186.5t68.5 257t-68.5 257t-186.5 186.5t-257 68.5zM512 -96q-98 0 -186.5 38t-153 102.5t-102.5 153t-38 186.5t38 186.5t102.5 153t153 102.5t186.5 38
t186.5 -38t153 -102.5t102.5 -153t38 -186.5t-38 -186.5t-102.5 -153t-153 -102.5t-186.5 -38zM774.5 583q-9.5 9 -22.5 9h-480q-13 0 -22.5 -9t-9.5 -23v-288q0 -13 9.5 -22.5t22.5 -9.5h162l-42 -42q-15 -15 -7 -34.5t30 -19.5h194q21 0 29.5 19.5t-6.5 34.5l-42 42h162
q13 0 22.5 9.5t9.5 22.5v288q0 14 -9.5 23zM609 176h-194l64 64l32 32l1 1l1 -1l32 -32zM752 288q0 -6 -4.5 -11t-11.5 -5h-178l-23 24q-10 9 -23 9t-23 -9l-23 -24h-178q-7 0 -11.5 5t-4.5 11v256q0 7 4.5 11.5t11.5 4.5h448q7 0 11.5 -4.5t4.5 -11.5v-256z" />
    <glyph glyph-name="uniE628" unicode="&#xe628;" 
d="M512 896q-139 0 -257 -68.5t-186.5 -186.5t-68.5 -257t68.5 -257t186.5 -186.5t257 -68.5t257 68.5t186.5 186.5t68.5 257t-68.5 257t-186.5 186.5t-257 68.5zM512 -96q-98 0 -186.5 38t-153 102.5t-102.5 153t-38 186.5t38 186.5t102.5 153t153 102.5t186.5 38
t186.5 -38t153 -102.5t102.5 -153t38 -186.5t-38 -186.5t-102.5 -153t-153 -102.5t-186.5 -38zM742.5 670.5q-9.5 9.5 -22.5 9.5h-416q-13 0 -22.5 -9.5t-9.5 -22.5v-528q0 -13 9.5 -22.5t22.5 -9.5h416q13 0 22.5 9.5t9.5 22.5v528q0 13 -9.5 22.5zM720 136
q0 -7 -4.5 -11.5t-11.5 -4.5h-384q-7 0 -11.5 4.5t-4.5 11.5v496q0 7 4.5 11.5t11.5 4.5h384q7 0 11.5 -4.5t4.5 -11.5v-496zM659 606h-294q-13 0 -22.5 -9.5t-9.5 -22.5v-282q0 -14 9.5 -23t22.5 -9h294q13 0 22.5 9t9.5 23v282q0 13 -9.5 22.5t-22.5 9.5zM659 308
q0 -7 -4.5 -11.5t-11.5 -4.5h-262q-7 0 -11.5 4.5t-4.5 11.5v250q0 7 4.5 11.5t11.5 4.5h262q7 0 11.5 -4.5t4.5 -11.5v-250zM512 236q-20 0 -34 -14t-14 -34t14 -34t34 -14t34 14t14 34t-14 34t-34 14zM512 172q-7 0 -11.5 5t-4.5 11.5t4.5 11t11.5 4.5t11.5 -4.5t4.5 -11
t-4.5 -11.5t-11.5 -5z" />
    <glyph glyph-name="uniE629" unicode="&#xe629;" 
d="M512 896q-139 0 -257 -68.5t-186.5 -186.5t-68.5 -257t68.5 -257t186.5 -186.5t257 -68.5t257 68.5t186.5 186.5t68.5 257t-68.5 257t-186.5 186.5t-257 68.5zM512 -96q-98 0 -186.5 38t-153 102.5t-102.5 153t-38 186.5t38 186.5t102.5 153t153 102.5t186.5 38
t186.5 -38t153 -102.5t102.5 -153t38 -186.5t-38 -186.5t-102.5 -153t-153 -102.5t-186.5 -38zM820.5 470.5q-9.5 9.5 -22.5 9.5h-14v112q0 13 -9.5 22.5t-22.5 9.5h-480q-13 0 -22.5 -9.5t-9.5 -22.5v-416q0 -13 9.5 -22.5t22.5 -9.5h480q13 0 22.5 9.5t9.5 22.5v112h14
q13 0 22.5 9.5t9.5 22.5v128q0 13 -9.5 22.5zM752 192q0 -7 -4.5 -11.5t-11.5 -4.5h-448q-7 0 -11.5 4.5t-4.5 11.5v384q0 7 4.5 11.5t11.5 4.5h448q7 0 11.5 -4.5t4.5 -11.5v-96h-178q-13 0 -22.5 -9.5t-9.5 -22.5v-128q0 -13 9.5 -22.5t22.5 -9.5h178v-96zM798 336
q0 -7 -4.5 -11.5t-11.5 -4.5h-192q-7 0 -11.5 4.5t-4.5 11.5v96q0 7 4.5 11.5t11.5 4.5h192q7 0 11.5 -4.5t4.5 -11.5v-96zM612 384zM596 384q0 7 4.5 11.5t11.5 4.5t11.5 -4.5t4.5 -11.5t-4.5 -11.5t-11.5 -4.5t-11.5 4.5t-4.5 11.5z" />
    <glyph glyph-name="uniE62A" unicode="&#xe62a;" 
d="M512 896q-139 0 -257 -68.5t-186.5 -186.5t-68.5 -257t68.5 -257t186.5 -186.5t257 -68.5t257 68.5t186.5 186.5t68.5 257t-68.5 257t-186.5 186.5t-257 68.5zM512 -96q-98 0 -186.5 38t-153 102.5t-102.5 153t-38 186.5t38 186.5t102.5 153t153 102.5t186.5 38
t186.5 -38t153 -102.5t102.5 -153t38 -186.5t-38 -186.5t-102.5 -153t-153 -102.5t-186.5 -38zM676 435v107q0 57 -48.5 106.5t-115.5 49.5t-115.5 -49.5t-48.5 -106.5v-107q-76 -51 -76 -149q0 -95 67 -143.5t173 -48.5t173 48.5t67 143.5q0 98 -76 149zM380 542
q0 44 39.5 84t92.5 40t92.5 -40t39.5 -84v-89q-56 25 -132 25t-132 -25v89zM512 126q-92 0 -150 40.5t-58 119.5t58 119.5t150 40.5t150 -40.5t58 -119.5t-58 -119.5t-150 -40.5zM514 388q-26 0 -45 -18.5t-19 -45.5q0 -22 13.5 -39t34.5 -22v-13q0 -7 4.5 -11.5t11.5 -4.5
t11.5 4.5t4.5 11.5v13q21 5 34.5 22t13.5 39q0 27 -19 45.5t-45 18.5zM514 292q-13 0 -22.5 9.5t-9.5 23t9.5 22.5t22.5 9t22.5 -9t9.5 -22.5t-9.5 -23t-22.5 -9.5z" />
    <glyph glyph-name="uniE62C" unicode="&#xe62c;" 
d="M512 896q-139 0 -257 -68.5t-186.5 -186.5t-68.5 -257t68.5 -257t186.5 -186.5t257 -68.5t257 68.5t186.5 186.5t68.5 257t-68.5 257t-186.5 186.5t-257 68.5zM512 -96q-98 0 -186.5 38t-153 102.5t-102.5 153t-38 186.5t38 186.5t102.5 153t153 102.5t186.5 38
t186.5 -38t153 -102.5t102.5 -153t38 -186.5t-38 -186.5t-102.5 -153t-153 -102.5t-186.5 -38zM689 568l32 56q3 5 1.5 11.5t-7 10t-12 1.5t-10.5 -7l-33 -59q-62 24 -132 26v69q0 7 -4.5 11.5t-11.5 4.5t-11.5 -4.5t-4.5 -11.5v-69q-69 -2 -130 -26l-34 59q-3 5 -9.5 7
t-12 -1.5t-7.5 -10t1 -11.5l32 -56q-66 -32 -105 -85t-39 -115q0 -65 43 -120.5t116.5 -87.5t160.5 -32t160.5 32t116.5 87.5t43 120.5q0 62 -38.5 114.5t-104.5 85.5zM512 160q-119 0 -203.5 61t-84.5 147q0 53 34.5 98.5t93.5 74.5v-1l5 3q71 33 155 33q88 0 161 -36
q59 -28 93 -73.5t34 -98.5q0 -86 -84.5 -147t-203.5 -61zM512 224q-60 0 -102 42t-42 102t42 102t102 42t102 -42t42 -102t-42 -102t-102 -42zM512 480q-46 0 -79 -33t-33 -79t33 -79t79 -33t79 33t33 79t-33 79t-79 33z" />
    <glyph glyph-name="uniE62D" unicode="&#xe62d;" 
d="M512 896q-139 0 -257 -68.5t-186.5 -186.5t-68.5 -257t68.5 -257t186.5 -186.5t257 -68.5t257 68.5t186.5 186.5t68.5 257t-68.5 257t-186.5 186.5t-257 68.5zM512 -96q-98 0 -186.5 38t-153 102.5t-102.5 153t-38 186.5t38 186.5t102.5 153t153 102.5t186.5 38
t186.5 -38t153 -102.5t102.5 -153t38 -186.5t-38 -186.5t-102.5 -153t-153 -102.5t-186.5 -38zM765.5 502q-2.5 6 -6.5 10l-119 119q-5 4 -10.5 6.5t-12.5 2.5h-329q-13 0 -22.5 -9.5t-9.5 -22.5v-448q0 -13 9.5 -22.5t22.5 -9.5h448q13 0 22.5 9.5t9.5 22.5v329
q0 7 -2.5 13zM640 585l73 -73h-73v73zM731.5 164.5q-4.5 -4.5 -11.5 -4.5h-416q-7 0 -11.5 4.5t-4.5 11.5v416q0 7 4.5 11.5t11.5 4.5h304v-96q0 -13 9.5 -22.5t22.5 -9.5h96v-304q0 -7 -4.5 -11.5zM651 385h-288q-7 0 -11.5 -4.5t-4.5 -11t4.5 -11.5t11.5 -5h288q6 0 11 5
t5 11.5t-5 11t-11 4.5zM363 449h141q7 0 11.5 5t4.5 11.5t-4.5 11t-11.5 4.5h-141q-7 0 -11.5 -4.5t-4.5 -11t4.5 -11.5t11.5 -5zM651 289h-288q-7 0 -11.5 -4.5t-4.5 -11t4.5 -11.5t11.5 -5h288q6 0 11 5t5 11.5t-5 11t-11 4.5z" />
    <glyph glyph-name="uniE62F" unicode="&#xe62f;" 
d="M512 896q-139 0 -257 -68.5t-186.5 -186.5t-68.5 -257t68.5 -257t186.5 -186.5t257 -68.5t257 68.5t186.5 186.5t68.5 257t-68.5 257t-186.5 186.5t-257 68.5zM512 -96q-98 0 -186.5 38t-153 102.5t-102.5 153t-38 186.5t38 186.5t102.5 153t153 102.5t186.5 38
t186.5 -38t153 -102.5t102.5 -153t38 -186.5t-38 -186.5t-102.5 -153t-153 -102.5t-186.5 -38zM819 433q2 4 2 9v1q-1 2 -1 3v1q-1 0 -1 1t-1 1l-97 146q-1 0 -1.5 0.5l-0.5 0.5v1l-1 1l-2 1v1h-1q-1 1 -3 1v1h-1h-4h-165h-60h-165h-4h-1v-1q-2 0 -3 -1h-1v-1l-2 -1
q-1 -1 -1 -1.5t-1 -0.5q0 -1 -1 -1l-97 -146l-1 -1q0 -1 -1 -1v-1q0 -1 -1 -3v-1v-5l2 -4v-1l3 -3l293 -290v-1h1l1 -1l1 -1v0h2l2 -2h2h1h1v0h1h2h1l2 2h2v0l1 1l1 1h1v1l293 290l3 3v1zM444 424h136h7l-75 -224l-75 224h7zM580 456h-136l68 101l23 -33zM656 480l51 77
l68 -101h-135zM677 570l-67 -101l-41 61l-27 40h135zM482 570l-36 -54l-32 -47l-20 31l-47 70h135zM317 557l58 -86l9 -15h-135zM258 424h126h19l24 -71l48 -144zM549 209l72 215h19h126z" />
    <glyph glyph-name="uniE630" unicode="&#xe630;" 
d="M512 896q-139 0 -257 -68.5t-186.5 -186.5t-68.5 -257t68.5 -257t186.5 -186.5t257 -68.5t257 68.5t186.5 186.5t68.5 257t-68.5 257t-186.5 186.5t-257 68.5zM512 -96q-98 0 -186.5 38t-153 102.5t-102.5 153t-38 186.5t38 186.5t102.5 153t153 102.5t186.5 38
t186.5 -38t153 -102.5t102.5 -153t38 -186.5t-38 -186.5t-102.5 -153t-153 -102.5t-186.5 -38zM733 372l-208 317q-4 7 -13 7t-13 -7l-208 -317h-1q-4 -7 -1.5 -14t9.5 -9l1 -1q9 -3 37.5 -35.5t65.5 -82.5h-34q-13 0 -22.5 -9.5t-9.5 -22.5v-32q0 -14 9.5 -23t22.5 -9h288
q13 0 22.5 9t9.5 23v32q0 13 -9.5 22.5t-22.5 9.5h-34q37 50 65.5 82.5t37.5 35.5q7 3 10 10.5t-2 13.5zM651.5 193q4.5 -5 4.5 -11.5t-4.5 -11t-11.5 -4.5h-256q-7 0 -11.5 4.5t-4.5 11t4.5 11.5t11.5 5h256q7 0 11.5 -5zM583 231h-142q-75 105 -115 137l170 259v-179
q0 -7 4.5 -11.5t11.5 -4.5t11.5 4.5t4.5 11.5v179l170 -259q-40 -32 -115 -137zM672 104h-320q-7 0 -11.5 -5t-4.5 -11.5t4.5 -11t11.5 -4.5h320q7 0 11.5 4.5t4.5 11t-4.5 11.5t-11.5 5z" />
    <glyph glyph-name="uniE631" unicode="&#xe631;" 
d="M512 896q-139 0 -257 -68.5t-186.5 -186.5t-68.5 -257t68.5 -257t186.5 -186.5t257 -68.5t257 68.5t186.5 186.5t68.5 257t-68.5 257t-186.5 186.5t-257 68.5zM512 -96q-98 0 -186.5 38t-153 102.5t-102.5 153t-38 186.5t38 186.5t102.5 153t153 102.5t186.5 38
t186.5 -38t153 -102.5t102.5 -153t38 -186.5t-38 -186.5t-102.5 -153t-153 -102.5t-186.5 -38zM757 465h-4q-1 0 -1 -1q-8 228 -240 228t-240 -228h-2q-2 1 -3 1q-43 0 -73.5 -35t-30.5 -84t30.5 -84t73.5 -35q16 0 28.5 5t19.5 15.5t11.5 20.5t6 26.5t2 25.5t0.5 26
q0 25 -1 40.5t-8.5 36.5t-21.5 31q1 105 52 155.5t156 50.5t156 -50.5t52 -155.5q-14 -10 -21.5 -31t-8.5 -36.5t-1 -40.5q0 -78 24 -102q-9 -42 -29 -61t-53 -26q-6 16 -20 26t-31 10h-46q-23 0 -39.5 -17t-16.5 -41.5t16.5 -41.5t39.5 -17h46q20 0 35.5 14t18.5 35
q86 17 108 103q8 -1 15 -1q43 0 73.5 35t30.5 84t-30.5 84t-73.5 35zM267 259q-30 0 -51 25.5t-21 61.5t21 61.5t51 25.5q21 0 28.5 -18t7.5 -69t-7.5 -69t-28.5 -18zM580 108h-46q-10 0 -17 7.5t-7 18.5t7 19t17 8h46q9 0 16 -8t7 -19t-7 -18.5t-16 -7.5zM757 259
q-21 0 -28.5 18t-7.5 69t7.5 69t28.5 18q30 0 51 -25.5t21 -61.5t-21 -61.5t-51 -25.5z" />
    <glyph glyph-name="uniE632" unicode="&#xe632;" 
d="M512 896q-139 0 -257 -68.5t-186.5 -186.5t-68.5 -257t68.5 -257t186.5 -186.5t257 -68.5t257 68.5t186.5 186.5t68.5 257t-68.5 257t-186.5 186.5t-257 68.5zM512 -96q-98 0 -186.5 38t-153 102.5t-102.5 153t-38 186.5t38 186.5t102.5 153t153 102.5t186.5 38
t186.5 -38t153 -102.5t102.5 -153t38 -186.5t-38 -186.5t-102.5 -153t-153 -102.5t-186.5 -38zM784 525q-12 35 -72 76.5t-119.5 67.5t-80.5 26t-80.5 -26t-119.5 -67.5t-72 -76.5q-14 -42 5.5 -119t59 -150.5t97 -128t110.5 -54.5t110.5 54.5t97 128t59 150.5t5.5 119z
M512 105q-47 0 -98 49t-85.5 115t-52 134.5t-5.5 106.5q11 32 64 69.5t105.5 60.5t71.5 23t71.5 -23t105.5 -60.5t64 -69.5q12 -38 -5.5 -106.5t-52 -134.5t-85.5 -115t-98 -49zM607 388q0 1 1 3v1v2q0 2 -1 3q0 2 -1 3t-2 2.5t-2 2.5v1h-1h-1q-2 1 -3.5 1.5t-2.5 0.5h-2v1
h-129l74 106q9 13 -4 22t-22 -4l-92 -131h-1v-2q-1 -1 -1.5 -2.5t-0.5 -3.5v-2v-1q0 -1 0.5 -3t1 -3t2 -2t2.5 -2v-1q1 0 1 -0.5t1 -0.5q2 -1 3.5 -1.5t2.5 -0.5h2h129l-74 -106q-9 -13 4 -22.5t22 3.5l92 132h1v1q1 2 1 3z" />
    <glyph glyph-name="uniE633" unicode="&#xe633;" 
d="M512 896q-139 0 -257 -68.5t-186.5 -186.5t-68.5 -257t68.5 -257t186.5 -186.5t257 -68.5t257 68.5t186.5 186.5t68.5 257t-68.5 257t-186.5 186.5t-257 68.5zM512 -96q-98 0 -186.5 38t-153 102.5t-102.5 153t-38 186.5t38 186.5t102.5 153t153 102.5t186.5 38
t186.5 -38t153 -102.5t102.5 -153t38 -186.5t-38 -186.5t-102.5 -153t-153 -102.5t-186.5 -38zM449 500h-32v32q0 6 -4.5 11t-11.5 5t-11.5 -5t-4.5 -11v-32h-32q-7 0 -11.5 -5t-4.5 -11.5t4.5 -11t11.5 -4.5h32v-32q0 -7 4.5 -11.5t11.5 -4.5t11.5 4.5t4.5 11.5v32h32
q7 0 11.5 4.5t4.5 11t-4.5 11.5t-11.5 5zM671 500h-96q-7 0 -11.5 -5t-4.5 -11.5t4.5 -11t11.5 -4.5h96q7 0 11.5 4.5t4.5 11t-4.5 11.5t-11.5 5zM446.5 321.5q-11.5 11.5 -22.5 -0.5l-23 -22l-23 22q-11 12 -22.5 0.5t0.5 -22.5l22 -23l-22 -22q-12 -12 -0.5 -23t22.5 0
l23 23l23 -23q11 -11 22.5 0t-0.5 23l-22 22l22 23q12 11 0.5 22.5zM671 292h-96q-7 0 -11.5 -4.5t-4.5 -11t4.5 -11.5t11.5 -5h96q7 0 11.5 5t4.5 11.5t-4.5 11t-11.5 4.5zM623 316zM607 316.5q0 6.5 4.5 11t11.5 4.5t11.5 -4.5t4.5 -11t-4.5 -11.5t-11.5 -5t-11.5 5
t-4.5 11.5zM623 236zM607 236.5q0 6.5 4.5 11t11.5 4.5t11.5 -4.5t4.5 -11t-4.5 -11.5t-11.5 -5t-11.5 5t-4.5 11.5zM512 680q-137 0 -216.5 -79.5t-79.5 -216.5t79.5 -216.5t216.5 -79.5t216.5 79.5t79.5 216.5t-79.5 216.5t-216.5 79.5zM512 120q-124 0 -194 70t-70 194
t70 194t194 70t194 -70t70 -194t-70 -194t-194 -70z" />
    <glyph glyph-name="uniE634" unicode="&#xe634;" 
d="M512 896q-139 0 -257 -68.5t-186.5 -186.5t-68.5 -257t68.5 -257t186.5 -186.5t257 -68.5t257 68.5t186.5 186.5t68.5 257t-68.5 257t-186.5 186.5t-257 68.5zM512 -96q-98 0 -186.5 38t-153 102.5t-102.5 153t-38 186.5t38 186.5t102.5 153t153 102.5t186.5 38
t186.5 -38t153 -102.5t102.5 -153t38 -186.5t-38 -186.5t-102.5 -153t-153 -102.5t-186.5 -38zM512 688q-126 0 -215 -89t-89 -215t89 -215t215 -89t215 89t89 215t-89 215t-215 89zM528 113v29q0 7 -4.5 11.5t-11.5 4.5t-11.5 -4.5t-4.5 -11.5v-29q-103 6 -176 79t-79 176
h29q7 0 11.5 4.5t4.5 11.5t-4.5 11.5t-11.5 4.5h-29q6 103 79 176t176 79v-29q0 -7 4.5 -11.5t11.5 -4.5t11.5 4.5t4.5 11.5v29q103 -6 176 -79t79 -176h-29q-7 0 -11.5 -4.5t-4.5 -11.5t4.5 -11.5t11.5 -4.5h29q-6 -103 -79 -176t-176 -79zM455.5 440.5
q-2.5 -2.5 -3.5 -4.5l-87 -199l199 87q2 1 4.5 3.5t3.5 4.5l87 199l-199 -87q-2 -1 -4.5 -3.5zM545 351l-118 -52l52 118z" />
    <glyph glyph-name="uniE636" unicode="&#xe636;" 
d="M512 896q-139 0 -257 -68.5t-186.5 -186.5t-68.5 -257t68.5 -257t186.5 -186.5t257 -68.5t257 68.5t186.5 186.5t68.5 257t-68.5 257t-186.5 186.5t-257 68.5zM512 -96q-98 0 -186.5 38t-153 102.5t-102.5 153t-38 186.5t38 186.5t102.5 153t153 102.5t186.5 38
t186.5 -38t153 -102.5t102.5 -153t38 -186.5t-38 -186.5t-102.5 -153t-153 -102.5t-186.5 -38zM782 358q-7 0 -11.5 -4.5t-4.5 -11.5q-16 -91 -87 -151.5t-165 -60.5q-106 0 -181 75t-75 181q0 94 60.5 165t151.5 87q7 0 11.5 4.5t4.5 11.5t-4.5 11.5t-11.5 4.5
q-105 -16 -174.5 -96.5t-69.5 -187.5q0 -119 84.5 -203.5t203.5 -84.5q107 0 187.5 69.5t96.5 174.5q0 7 -4.5 11.5t-11.5 4.5zM815 404q-4 61 -31 116q-45 91 -137 136q-54 27 -115 31q-4 1 -7 1q-13 -3 -13 -16v-256q0 -13 9 -23q10 -9 23 -9h256q13 0 16 13q0 3 -1 7z
M560 416q-7 0 -11 5q-5 5 -5 11v222q93 -11 160 -78t78 -160h-222z" />
    <glyph glyph-name="uniE637" unicode="&#xe637;" 
d="M512 896q-139 0 -257 -68.5t-186.5 -186.5t-68.5 -257t68.5 -257t186.5 -186.5t257 -68.5t257 68.5t186.5 186.5t68.5 257t-68.5 257t-186.5 186.5t-257 68.5zM512 -96q-98 0 -186.5 38t-153 102.5t-102.5 153t-38 186.5t38 186.5t102.5 153t153 102.5t186.5 38
t186.5 -38t153 -102.5t102.5 -153t38 -186.5t-38 -186.5t-102.5 -153t-153 -102.5t-186.5 -38zM768.5 635q-14.5 14 -33.5 7l-501 -188q-17 -7 -20 -25.5t12 -30.5l136 -104v-104q0 -23 21 -30.5t36 9.5l41 50l116 -88q13 -10 28.5 -5.5t20.5 20.5l152 456q6 19 -8.5 33z
M422 224q-7 -9 -17.5 -5t-10.5 15v36l40 -31zM736 580l-134 -403q-2 -8 -10 -10t-15 3l-164 126l136 108q13 10 3 22.5t-23 2.5l-142 -113l-118 90q-8 6 -6.5 15.5t10.5 12.5l442 166q9 4 16.5 -3t4.5 -17z" />
    <glyph glyph-name="uniE63B" unicode="&#xe63b;" 
d="M512 896q-139 0 -257 -68.5t-186.5 -186.5t-68.5 -257t68.5 -257t186.5 -186.5t257 -68.5t257 68.5t186.5 186.5t68.5 257t-68.5 257t-186.5 186.5t-257 68.5zM512 -96q-98 0 -186.5 38t-153 102.5t-102.5 153t-38 186.5t38 186.5t102.5 153t153 102.5t186.5 38
t186.5 -38t153 -102.5t102.5 -153t38 -186.5t-38 -186.5t-102.5 -153t-153 -102.5t-186.5 -38zM531 417q-4 5 -11 5t-11 -5l-114 -113q-11 -11 0.5 -22.5t22.5 0.5l86 86v-206q0 -7 4.5 -11.5t11.5 -4.5t11.5 4.5t4.5 11.5v206l86 -86q11 -12 22.5 -0.5t0.5 22.5zM712 496
h-1q-8 72 -62.5 121t-128.5 49q-65 0 -116 -39t-68 -99h-8q-66 0 -113 -47t-47 -113t47 -113t113 -47h16q7 0 11.5 4.5t4.5 11.5t-4.5 11.5t-11.5 4.5h-16q-53 0 -90.5 37.5t-37.5 90.5t37.5 90.5t90.5 37.5h1q17 0 32 -4q2 15 7 31q15 49 57 80t95 31q61 0 106.5 -41
t52.5 -101q1 -8 1 -18q0 -8 -1 -15q16 5 33 5q46 0 79 -33t33 -79t-33 -79t-79 -33h-16q-7 0 -11.5 -4.5t-4.5 -11.5t4.5 -11.5t11.5 -4.5h16q60 0 102 42t42 102t-42 102t-102 42z" />
    <glyph glyph-name="uniE63C" unicode="&#xe63c;" 
d="M512 896q-139 0 -257 -68.5t-186.5 -186.5t-68.5 -257t68.5 -257t186.5 -186.5t257 -68.5t257 68.5t186.5 186.5t68.5 257t-68.5 257t-186.5 186.5t-257 68.5zM512 -96q-98 0 -186.5 38t-153 102.5t-102.5 153t-38 186.5t38 186.5t102.5 153t153 102.5t186.5 38
t186.5 -38t153 -102.5t102.5 -153t38 -186.5t-38 -186.5t-102.5 -153t-153 -102.5t-186.5 -38zM639.5 169.5q3.5 39.5 -22 70t-65.5 34.5q-37 3 -66 -19l5 59l306 214q13 9 3.5 22.5t-22.5 3.5l-283 -198l30 345q1 6 -3.5 11t-11 6t-11.5 -3.5t-6 -11.5l-32 -371l-49 -34
q4 36 -17 66q-23 33 -62 40t-71.5 -16t-39.5 -62t16 -71.5t62 -39.5t72 15l85 60l-9 -104q-3 -39 22.5 -69.5t65 -34t70 22t34 65zM353.5 256.5q-21.5 -15.5 -48 -10.5t-41.5 26.5t-10.5 47.5t26.5 41.5t48 11t41 -26.5t10.5 -48t-26 -41.5zM538 114.5q-26 2.5 -43 22.5
t-15 46.5t22.5 43.5t47 14.5t43.5 -22.5t14.5 -46.5t-23 -43.5t-46.5 -14.5z" />
    <glyph glyph-name="uniE63D" unicode="&#xe63d;" 
d="M512 896q-139 0 -257 -68.5t-186.5 -186.5t-68.5 -257t68.5 -257t186.5 -186.5t257 -68.5t257 68.5t186.5 186.5t68.5 257t-68.5 257t-186.5 186.5t-257 68.5zM512 -96q-98 0 -186.5 38t-153 102.5t-102.5 153t-38 186.5t38 186.5t102.5 153t153 102.5t186.5 38
t186.5 -38t153 -102.5t102.5 -153t38 -186.5t-38 -186.5t-102.5 -153t-153 -102.5t-186.5 -38zM311 382q-31 -3 -56 16.5t-30 49.5q-6 33 13 60.5t52 33t60.5 -13.5t32.5 -52q6 -33 -13 -60t-52 -33q-3 -1 -7 -1zM300 510q-2 -1 -4 -1q-20 -3 -31 -19.5t-8 -35.5
q3 -18 18 -29.5t33 -9.5q2 0 4 1q20 3 31 19t8 35t-18 30t-33 10zM485 497q-34 -3 -62 18.5t-34 55.5q-6 37 15 67.5t58 36.5t67.5 -15.5t36.5 -57.5t-15 -66.5t-58 -37.5q-4 0 -8 -1zM473 643q-3 0 -5 -1q-23 -4 -36.5 -23t-9.5 -42t23.5 -36.5t42 -9.5t36 23t9.5 42
q-3 22 -21 35.5t-39 11.5zM689 458q-27 -2 -49 15t-27 44q-5 29 12 53t46 29.5t53.5 -12t29.5 -45.5q5 -30 -12 -54t-46 -29q-3 -1 -7 -1zM680 567h-3q-16 -3 -25 -16t-6.5 -28.5t15.5 -24.5t29 -6.5t25 15.5t6 29q-3 14 -14.5 23.5t-26.5 7.5zM393 145q-69 -6 -82 68
q-15 83 42 154q56 69 148 85q95 17 170.5 -30t90.5 -129q7 -43 -11 -67q-20 -27 -87 -33q-8 0 -31 -2q-24 -1 -36 -2q-27 -3 -48 -7q-30 -5 -83 -20q-52 -16 -73 -17zM527 422q-10 -1 -20 -3q-80 -14 -128 -73q-47 -59 -35 -127q4 -26 15 -34.5t31 -6.5q18 1 67 16
q55 16 86 21q23 4 51 7q14 1 37 2q19 1 31 2q51 5 63 20q9 13 4 41q-11 64 -69 102.5t-133 32.5z" />
    <glyph glyph-name="uniE63E" unicode="&#xe63e;" 
d="M512 896q-139 0 -257 -68.5t-186.5 -186.5t-68.5 -257t68.5 -257t186.5 -186.5t257 -68.5t257 68.5t186.5 186.5t68.5 257t-68.5 257t-186.5 186.5t-257 68.5zM512 -96q-98 0 -186.5 38t-153 102.5t-102.5 153t-38 186.5t38 186.5t102.5 153t153 102.5t186.5 38
t186.5 -38t153 -102.5t102.5 -153t38 -186.5t-38 -186.5t-102.5 -153t-153 -102.5t-186.5 -38zM509 450l165 196q10 12 -2.5 22.5t-22.5 -2.5l-164 -196q-11 -12 1.5 -22.5t22.5 2.5zM588 447.5q12 -10.5 22 2.5l165 196q10 12 -2 22.5t-23 -2.5l-164 -196q-10 -12 2 -22.5z
M795 440q0 33 -79 52q-7 0 -12 -5t-5 -12t5 -11.5t12 -4.5q37 -10 46 -19q-12 -13 -81 -25.5t-169 -12.5t-169 12.5t-81 25.5q9 10 52.5 20t109.5 15q7 0 11.5 5t4.5 11.5t-4.5 11t-11.5 4.5q-195 -13 -195 -67q0 -3 1 -6l-1 -3q0 -75 36.5 -138.5t97.5 -101.5
q5 -41 47.5 -68t102.5 -27q61 0 104 27.5t47 69.5q60 38 95.5 101t35.5 137l-1 3q1 3 1 6zM513 128q-34 0 -62.5 11t-43.5 29q51 -20 105 -20q57 0 109 22q-15 -19 -44 -30.5t-64 -11.5zM512 180q-96 0 -167.5 64.5t-81.5 159.5q72 -34 249 -34t249 34q-10 -95 -81.5 -159.5
t-167.5 -64.5z" />
    <glyph glyph-name="uniE641" unicode="&#xe641;" 
d="M512 896q-139 0 -257 -68.5t-186.5 -186.5t-68.5 -257t68.5 -257t186.5 -186.5t257 -68.5t257 68.5t186.5 186.5t68.5 257t-68.5 257t-186.5 186.5t-257 68.5zM512 -96q-98 0 -186.5 38t-153 102.5t-102.5 153t-38 186.5t38 186.5t102.5 153t153 102.5t186.5 38
t186.5 -38t153 -102.5t102.5 -153t38 -186.5t-38 -186.5t-102.5 -153t-153 -102.5t-186.5 -38zM774.5 566.5q-9.5 9.5 -22.5 9.5h-130l68 68q11 12 0 23t-23 0l-90 -91h-130l-90 91q-12 11 -23 0t0 -23l68 -68h-130q-13 0 -22.5 -9.5t-9.5 -22.5v-352q0 -13 9.5 -22.5
t22.5 -9.5h480q13 0 22.5 9.5t9.5 22.5v352q0 13 -9.5 22.5zM752 208q0 -7 -4.5 -11.5t-11.5 -4.5h-448q-7 0 -11.5 4.5t-4.5 11.5v320q0 7 4.5 11.5t11.5 4.5h448q7 0 11.5 -4.5t4.5 -11.5v-320zM647 487h-270q-13 0 -22.5 -9t-9.5 -23v-174q0 -14 9.5 -23t22.5 -9h270
q13 0 22.5 9t9.5 23v174q0 14 -9.5 23t-22.5 9zM647 297q0 -7 -5 -11.5t-11 -4.5h-238q-6 0 -11 4.5t-5 11.5v142q0 7 5 11.5t11 4.5h238q6 0 11 -4.5t5 -11.5v-142z" />
    <glyph glyph-name="uniE642" unicode="&#xe642;" 
d="M512 896q-139 0 -257 -68.5t-186.5 -186.5t-68.5 -257t68.5 -257t186.5 -186.5t257 -68.5t257 68.5t186.5 186.5t68.5 257t-68.5 257t-186.5 186.5t-257 68.5zM512 -96q-98 0 -186.5 38t-153 102.5t-102.5 153t-38 186.5t38 186.5t102.5 153t153 102.5t186.5 38
t186.5 -38t153 -102.5t102.5 -153t38 -186.5t-38 -186.5t-102.5 -153t-153 -102.5t-186.5 -38zM354 208zM456 166v-1v1zM568 165v1v-1zM670 208zM536 640q-60 0 -115 -21q-38 37 -77 37q-13 0 -22.5 -9.5t-9.5 -22.5v-79q-33 -37 -50 -81h-30q-13 0 -22.5 -9.5t-9.5 -22.5
v-96q0 -13 9.5 -22.5t22.5 -9.5h30q26 -70 90 -117q0 -54 9 -66q8 -9 23 -9h64q13 0 23 9q5 6 7 12q28 -5 58 -5t58 5q2 -6 7 -12q10 -9 23 -9h64q16 0 23 9q9 14 9 66q49 36 76.5 87.5t27.5 109.5q0 106 -84.5 181t-203.5 75zM694 208q-4 -52 -11 -59q-5 -5 -11 -5h-32h-3
q-5 1 -8 5q-2 1 -3 6t-4 7q-1 1 -6 0q-63 -8 -80 -8q-16 0 -80 8q-6 1 -7.5 -0.5t-2.5 -6.5t-3 -6q-3 -4 -8 -5h-3h-32q-6 0 -11 5t-5 11l-6 48q-56 38 -81 96q-4 8 -6 16q-3 8 -8 12q-3 3 -12 4t-16 0h-7q-6 0 -11 5t-5 11v64q0 6 5 11t11 5q28 -1 36 5q4 3 7 11q2 8 6 16
q9 21 23 40l24 32v87q25 -4 45 -19q13 -9 24 -24q14 7 30 13q44 15 93 15q106 0 181 -65.5t75 -158.5q0 -53 -26 -99t-72 -77zM536 574q-58 0 -91 -25q-11 -12 0 -23.5t23 0.5q25 16 68 16q39 0 64 -14q5 -5 12 -5t11.5 5t4.5 12t-4 11q-33 23 -88 23zM655 515zM639 514.5
q0 6.5 4.5 11.5t11 5t11.5 -5t5 -11.5t-5 -11t-11.5 -4.5t-11 4.5t-4.5 11z" />
    <glyph glyph-name="uniE647" unicode="&#xe647;" 
d="M512 896q-139 0 -257 -68.5t-186.5 -186.5t-68.5 -257t68.5 -257t186.5 -186.5t257 -68.5t257 68.5t186.5 186.5t68.5 257t-68.5 257t-186.5 186.5t-257 68.5zM512 -96q-98 0 -186.5 38t-153 102.5t-102.5 153t-38 186.5t38 186.5t102.5 153t153 102.5t186.5 38
t186.5 -38t153 -102.5t102.5 -153t38 -186.5t-38 -186.5t-102.5 -153t-153 -102.5t-186.5 -38zM352 202zM566 159v1v-1zM744 463l14 80q13 4 12 17q-1 7 -6 11t-11 4l-435 -38l-16 90l1 -8q-2 13 -13 21t-24 5l-63 -11q-6 -1 -10 -6.5t-3 -12t6.5 -10t12.5 -2.5l47 8
q7 1 12.5 -2.5t6.5 -10.5l65 -371q2 -11 11 -18.5t21 -7.5v0h331q11 0 20 7.5t11 19.5l33 199q2 14 -7 26q-7 7 -16 10zM673 464l13 73l39 3l-14 -76h-38zM324 505l329 29l-13 -70h-309zM705 246q-1 -6 -5.5 -9.5t-10.5 -3.5h-304q-6 0 -10 3.5t-5 9.5l-30 167
q-1 8 3.5 13.5t12.5 5.5h361q7 0 12 -5.5t3 -13.5zM389 186q-20 0 -34 -14t-14 -34t14 -34t34 -14t34 14t14 34t-14 34t-34 14zM389.5 122q-6.5 0 -11.5 5t-5 11.5t5 11t11.5 4.5t11 -4.5t4.5 -11t-4.5 -11.5t-11 -5zM678.5 186q-19.5 0 -34 -14t-14.5 -34t14.5 -34t34 -14
t33.5 14t14 34t-14 34t-33.5 14zM678.5 122q-6.5 0 -11.5 5t-5 11.5t5 11t11.5 4.5t11 -4.5t4.5 -11t-4.5 -11.5t-11 -5z" />
  </font>
</defs>
</svg>
